<svg width="312" height="96" viewBox="0 0 312 96" fill="none" xmlns="http://www.w3.org/2000/svg">
<g clip-path="url(#clip0_145_2)">
<path d="M91.5254 67C89.0978 67 86.9129 66.7053 84.9708 66.116C83.0287 65.492 81.1733 64.4173 79.4046 62.892C78.9537 62.5106 78.6069 62.0773 78.3641 61.592C78.1214 61.1066 78 60.6213 78 60.136C78 59.3386 78.2774 58.6453 78.8323 58.056C79.4219 57.432 80.1502 57.12 81.0172 57.12C81.6761 57.12 82.2657 57.328 82.7859 57.744C84.1038 58.8186 85.4043 59.6333 86.6875 60.188C88.0054 60.7426 89.618 61.02 91.5254 61.02C92.8086 61.02 93.9878 60.8293 95.0629 60.448C96.138 60.032 97.005 59.4946 97.6639 58.836C98.3228 58.1426 98.6523 57.3626 98.6523 56.496C98.6523 55.456 98.3402 54.572 97.7159 53.844C97.0917 53.116 96.138 52.5093 94.8548 52.024C93.5716 51.504 91.9416 51.1053 89.9648 50.828C88.0921 50.5506 86.4447 50.1346 85.0228 49.58C83.6009 48.9906 82.4044 48.2626 81.4334 47.396C80.497 46.4946 79.7861 45.4546 79.3005 44.276C78.815 43.0626 78.5722 41.7106 78.5722 40.22C78.5722 37.9667 79.1445 36.0427 80.2889 34.448C81.4681 32.8533 83.046 31.64 85.0228 30.808C86.9996 29.976 89.1845 29.56 91.5774 29.56C93.8317 29.56 95.9125 29.9067 97.82 30.6C99.7621 31.2587 101.34 32.108 102.554 33.148C103.56 33.9453 104.062 34.864 104.062 35.904C104.062 36.6667 103.768 37.36 103.178 37.984C102.589 38.608 101.895 38.92 101.097 38.92C100.577 38.92 100.109 38.764 99.6927 38.452C99.1378 37.9667 98.3922 37.516 97.4558 37.1C96.5194 36.6493 95.531 36.2853 94.4906 36.008C93.4502 35.696 92.4791 35.54 91.5774 35.54C90.0862 35.54 88.8204 35.7307 87.7799 36.112C86.7742 36.4933 86.0112 37.0133 85.491 37.672C84.9708 38.3307 84.7107 39.0933 84.7107 39.96C84.7107 41 85.0055 41.8666 85.5951 42.56C86.2193 43.2186 87.1037 43.756 88.2481 44.172C89.3926 44.5533 90.7625 44.9 92.3578 45.212C94.4386 45.5933 96.2593 46.044 97.82 46.564C99.4153 47.084 100.733 47.76 101.774 48.592C102.814 49.3893 103.594 50.412 104.114 51.66C104.635 52.8733 104.895 54.364 104.895 56.132C104.895 58.3853 104.271 60.3266 103.022 61.956C101.774 63.5853 100.126 64.8333 98.0801 65.7C96.0686 66.5666 93.8837 67 91.5254 67ZM124.958 38.14C127.455 38.14 129.345 38.6773 130.628 39.752C131.946 40.8266 132.848 42.2653 133.334 44.068C133.819 45.836 134.062 47.812 134.062 49.996V63.308C134.062 64.2093 133.767 64.972 133.178 65.596C132.588 66.1853 131.842 66.48 130.941 66.48C130.039 66.48 129.293 66.1853 128.704 65.596C128.114 64.972 127.819 64.2093 127.819 63.308V49.996C127.819 48.852 127.681 47.8293 127.403 46.928C127.126 45.992 126.623 45.2466 125.895 44.692C125.166 44.1373 124.126 43.86 122.773 43.86C121.455 43.86 120.328 44.1373 119.392 44.692C118.456 45.2466 117.745 45.992 117.259 46.928C116.808 47.8293 116.583 48.852 116.583 49.996V63.308C116.583 64.2093 116.288 64.972 115.698 65.596C115.109 66.1853 114.363 66.48 113.462 66.48C112.56 66.48 111.814 66.1853 111.225 65.596C110.635 64.972 110.34 64.2093 110.34 63.308V31.172C110.34 30.2707 110.635 29.5253 111.225 28.936C111.814 28.312 112.56 28 113.462 28C114.363 28 115.109 28.312 115.698 28.936C116.288 29.5253 116.583 30.2707 116.583 31.172V44.068L115.803 43.912C116.115 43.3226 116.548 42.6986 117.103 42.04C117.658 41.3466 118.334 40.7053 119.132 40.116C119.93 39.5266 120.814 39.0586 121.785 38.712C122.756 38.3307 123.814 38.14 124.958 38.14ZM163.607 38.14C164.508 38.14 165.254 38.4347 165.843 39.024C166.433 39.6133 166.728 40.376 166.728 41.312V63.308C166.728 64.2093 166.433 64.972 165.843 65.596C165.254 66.1853 164.508 66.48 163.607 66.48C162.705 66.48 161.959 66.1853 161.37 65.596C160.78 64.972 160.485 64.2093 160.485 63.308V60.76L161.63 61.228C161.63 61.6786 161.387 62.2333 160.901 62.892C160.416 63.516 159.757 64.14 158.925 64.764C158.092 65.388 157.104 65.9253 155.959 66.376C154.85 66.792 153.636 67 152.318 67C149.925 67 147.757 66.3933 145.815 65.18C143.873 63.932 142.33 62.2333 141.185 60.084C140.076 57.9 139.521 55.404 139.521 52.596C139.521 49.7533 140.076 47.2573 141.185 45.108C142.33 42.924 143.856 41.2253 145.763 40.012C147.671 38.764 149.786 38.14 152.11 38.14C153.601 38.14 154.971 38.3653 156.22 38.816C157.468 39.2666 158.543 39.8386 159.445 40.532C160.381 41.2253 161.092 41.936 161.578 42.664C162.098 43.3573 162.358 43.9466 162.358 44.432L160.485 45.108V41.312C160.485 40.4106 160.78 39.6653 161.37 39.076C161.959 38.452 162.705 38.14 163.607 38.14ZM153.098 61.28C154.624 61.28 155.959 60.8986 157.104 60.136C158.248 59.3733 159.133 58.3333 159.757 57.016C160.416 55.6986 160.745 54.2253 160.745 52.596C160.745 50.932 160.416 49.4413 159.757 48.124C159.133 46.8066 158.248 45.7666 157.104 45.004C155.959 44.2413 154.624 43.86 153.098 43.86C151.607 43.86 150.289 44.2413 149.145 45.004C148 45.7666 147.099 46.8066 146.44 48.124C145.815 49.4413 145.503 50.932 145.503 52.596C145.503 54.2253 145.815 55.6986 146.44 57.016C147.099 58.3333 148 59.3733 149.145 60.136C150.289 60.8986 151.607 61.28 153.098 61.28ZM196.272 28C197.173 28 197.919 28.2947 198.509 28.884C199.098 29.4733 199.393 30.236 199.393 31.172V63.308C199.393 64.2093 199.098 64.972 198.509 65.596C197.919 66.1853 197.173 66.48 196.272 66.48C195.37 66.48 194.624 66.1853 194.035 65.596C193.445 64.972 193.151 64.2093 193.151 63.308V60.76L194.295 61.228C194.295 61.6786 194.052 62.2333 193.567 62.892C193.081 63.516 192.422 64.14 191.59 64.764C190.758 65.388 189.769 65.9253 188.625 66.376C187.515 66.792 186.301 67 184.984 67C182.591 67 180.423 66.3933 178.481 65.18C176.539 63.932 174.996 62.2333 173.851 60.084C172.741 57.9 172.186 55.404 172.186 52.596C172.186 49.7533 172.741 47.2573 173.851 45.108C174.996 42.924 176.521 41.2253 178.429 40.012C180.336 38.764 182.452 38.14 184.775 38.14C186.267 38.14 187.636 38.3653 188.885 38.816C190.133 39.2666 191.208 39.8386 192.11 40.532C193.046 41.2253 193.757 41.936 194.243 42.664C194.763 43.3573 195.023 43.9466 195.023 44.432L193.151 45.108V31.172C193.151 30.2707 193.445 29.5253 194.035 28.936C194.624 28.312 195.37 28 196.272 28ZM185.764 61.28C187.289 61.28 188.625 60.8986 189.769 60.136C190.914 59.3733 191.798 58.3333 192.422 57.016C193.081 55.6986 193.411 54.2253 193.411 52.596C193.411 50.932 193.081 49.4413 192.422 48.124C191.798 46.8066 190.914 45.7666 189.769 45.004C188.625 44.2413 187.289 43.86 185.764 43.86C184.273 43.86 182.955 44.2413 181.81 45.004C180.666 45.7666 179.764 46.8066 179.105 48.124C178.481 49.4413 178.169 50.932 178.169 52.596C178.169 54.2253 178.481 55.6986 179.105 57.016C179.764 58.3333 180.666 59.3733 181.81 60.136C182.955 60.8986 184.273 61.28 185.764 61.28ZM219.262 67C216.314 67 213.748 66.3933 211.563 65.18C209.412 63.932 207.748 62.2506 206.569 60.136C205.424 58.0213 204.852 55.6293 204.852 52.96C204.852 49.84 205.476 47.188 206.725 45.004C208.008 42.7853 209.673 41.0866 211.719 39.908C213.765 38.7293 215.932 38.14 218.221 38.14C219.99 38.14 221.655 38.504 223.215 39.232C224.811 39.96 226.215 40.9653 227.429 42.248C228.643 43.496 229.597 44.952 230.29 46.616C231.019 48.28 231.383 50.048 231.383 51.92C231.348 52.752 231.019 53.428 230.394 53.948C229.77 54.468 229.042 54.728 228.209 54.728H208.337L206.777 49.528H225.868L224.724 50.568V49.164C224.655 48.1586 224.29 47.2573 223.632 46.46C223.007 45.6626 222.21 45.0386 221.239 44.588C220.302 44.1026 219.296 43.86 218.221 43.86C217.181 43.86 216.21 43.9986 215.308 44.276C214.406 44.5533 213.626 45.0213 212.967 45.68C212.308 46.3386 211.788 47.2226 211.407 48.332C211.025 49.4413 210.834 50.8453 210.834 52.544C210.834 54.416 211.216 56.0106 211.979 57.328C212.776 58.6106 213.782 59.5986 214.996 60.292C216.245 60.9506 217.562 61.28 218.95 61.28C220.233 61.28 221.256 61.176 222.019 60.968C222.782 60.76 223.389 60.5173 223.84 60.24C224.325 59.928 224.759 59.668 225.14 59.46C225.764 59.148 226.354 58.992 226.909 58.992C227.672 58.992 228.296 59.252 228.782 59.772C229.302 60.292 229.562 60.8986 229.562 61.592C229.562 62.528 229.076 63.3773 228.105 64.14C227.204 64.9026 225.938 65.5786 224.308 66.168C222.678 66.7226 220.996 67 219.262 67ZM239.957 66.48C239.056 66.48 238.31 66.1853 237.721 65.596C237.131 64.972 236.836 64.2093 236.836 63.308V41.832C236.836 40.9306 237.131 40.1853 237.721 39.596C238.31 38.972 239.056 38.66 239.957 38.66C240.859 38.66 241.605 38.972 242.194 39.596C242.784 40.1853 243.079 40.9306 243.079 41.832V46.72L242.715 43.236C243.096 42.404 243.582 41.676 244.171 41.052C244.795 40.3933 245.489 39.856 246.252 39.44C247.015 38.9893 247.83 38.66 248.697 38.452C249.564 38.244 250.431 38.14 251.298 38.14C252.338 38.14 253.205 38.4347 253.899 39.024C254.627 39.6133 254.991 40.3066 254.991 41.104C254.991 42.248 254.697 43.08 254.107 43.6C253.518 44.0853 252.876 44.328 252.182 44.328C251.523 44.328 250.917 44.2066 250.362 43.964C249.841 43.7213 249.235 43.6 248.541 43.6C247.917 43.6 247.275 43.756 246.616 44.068C245.992 44.3453 245.402 44.796 244.847 45.42C244.327 46.044 243.894 46.824 243.547 47.76C243.235 48.6613 243.079 49.736 243.079 50.984V63.308C243.079 64.2093 242.784 64.972 242.194 65.596C241.605 66.1853 240.859 66.48 239.957 66.48ZM281.01 28C281.911 28 282.657 28.2947 283.246 28.884C283.836 29.4733 284.131 30.236 284.131 31.172V63.308C284.131 64.2093 283.836 64.972 283.246 65.596C282.657 66.1853 281.911 66.48 281.01 66.48C280.108 66.48 279.362 66.1853 278.773 65.596C278.183 64.972 277.888 64.2093 277.888 63.308V60.76L279.033 61.228C279.033 61.6786 278.79 62.2333 278.304 62.892C277.819 63.516 277.16 64.14 276.328 64.764C275.495 65.388 274.507 65.9253 273.362 66.376C272.253 66.792 271.039 67 269.721 67C267.328 67 265.16 66.3933 263.218 65.18C261.276 63.932 259.733 62.2333 258.589 60.084C257.479 57.9 256.924 55.404 256.924 52.596C256.924 49.7533 257.479 47.2573 258.589 45.108C259.733 42.924 261.259 41.2253 263.166 40.012C265.074 38.764 267.189 38.14 269.513 38.14C271.004 38.14 272.374 38.3653 273.623 38.816C274.871 39.2666 275.946 39.8386 276.848 40.532C277.784 41.2253 278.495 41.936 278.981 42.664C279.501 43.3573 279.761 43.9466 279.761 44.432L277.888 45.108V31.172C277.888 30.2707 278.183 29.5253 278.773 28.936C279.362 28.312 280.108 28 281.01 28ZM270.501 61.28C272.027 61.28 273.362 60.8986 274.507 60.136C275.651 59.3733 276.536 58.3333 277.16 57.016C277.819 55.6986 278.148 54.2253 278.148 52.596C278.148 50.932 277.819 49.4413 277.16 48.124C276.536 46.8066 275.651 45.7666 274.507 45.004C273.362 44.2413 272.027 43.86 270.501 43.86C269.01 43.86 267.692 44.2413 266.548 45.004C265.403 45.7666 264.502 46.8066 263.843 48.124C263.218 49.4413 262.906 50.932 262.906 52.596C262.906 54.2253 263.218 55.6986 263.843 57.016C264.502 58.3333 265.403 59.3733 266.548 60.136C267.692 60.8986 269.01 61.28 270.501 61.28Z" fill="white"/>
</g>
<g clip-path="url(#clip1_145_2)">
<path d="M41.8537 16H10.882V27.5556H41.8537V16Z" fill="#6633FF"/>
<path d="M0 27.5554L0 60.4443H10.882L10.882 27.5554H0Z" fill="#6633FF"/>
<path d="M10.5784 46.1679L10.5784 80.061H42.4861V46.1679H10.5784Z" fill="#6633FF"/>
<path d="M0 65.7778L0 80H30.9717V65.7778H0Z" fill="#6633FF"/>
</g>
<defs>
<clipPath id="clip0_145_2">
<rect width="207" height="39" fill="white" transform="translate(78 28)"/>
</clipPath>
<clipPath id="clip1_145_2">
<rect width="41.8537" height="64" fill="white" transform="translate(0 16)"/>
</clipPath>
</defs>
</svg>
